<svg xmlns="http://www.w3.org/2000/svg" viewBox="0 0 128 128" width="128" height="128">
  <defs><clipPath id="c"><circle cx="64" cy="64" r="64"/></clipPath></defs>
  <g clip-path="url(#c)">
    <rect width="128" height="128" fill="#25412f"/>
    <circle cx="64" cy="118" r="46" fill="#3a6b4a"/>
    <circle cx="64" cy="60" r="26" fill="#d8b48a"/>
    <path d="M36 52 a28 18 0 0 1 56 0 l0 -6 a28 14 0 0 0 -56 0 z" fill="#f5c542"/>
    <rect x="34" y="49" width="60" height="7" rx="3" fill="#c99a2e"/>
    <circle cx="54" cy="60" r="3" fill="#3a2a1a"/>
    <circle cx="74" cy="60" r="3" fill="#3a2a1a"/>
    <path d="M54 72 q10 6 20 0" stroke="#7a5a3a" stroke-width="3" fill="none" stroke-linecap="round"/>
    <path d="M92 96 l10 -10 6 6 -10 10 z" fill="#9aa3b8"/>
    <rect x="96" y="90" width="6" height="18" rx="3" transform="rotate(45 99 99)" fill="#6b7385"/>
  </g>
</svg>
